<mxfile host="app.diagrams.net" modified="2023-11-22T06:37:02.098Z" agent="Mozilla/5.0 (Macintosh; Intel Mac OS X 10_15_7) AppleWebKit/537.36 (KHTML, like Gecko) Chrome/119.0.0.0 Safari/537.36" etag="oh0GPpiIX6tyYHG2ZWF6" version="22.1.3" type="github">
  <diagram id="C5RBs43oDa-KdzZeNtuy" name="Page-1">
    <mxGraphModel dx="1434" dy="717" grid="1" gridSize="10" guides="1" tooltips="1" connect="1" arrows="1" fold="1" page="1" pageScale="1" pageWidth="827" pageHeight="1169" math="0" shadow="0">
      <root>
        <mxCell id="WIyWlLk6GJQsqaUBKTNV-0" />
        <mxCell id="WIyWlLk6GJQsqaUBKTNV-1" parent="WIyWlLk6GJQsqaUBKTNV-0" />
        <mxCell id="79H7WuceuEITW2tOccr_-68" value="" style="edgeStyle=orthogonalEdgeStyle;rounded=0;orthogonalLoop=1;jettySize=auto;html=1;" edge="1" parent="WIyWlLk6GJQsqaUBKTNV-1" source="79H7WuceuEITW2tOccr_-66" target="79H7WuceuEITW2tOccr_-65">
          <mxGeometry relative="1" as="geometry" />
        </mxCell>
        <mxCell id="79H7WuceuEITW2tOccr_-66" value="" style="rounded=0;whiteSpace=wrap;html=1;textOpacity=1;labelBorderColor=#FF6666;labelBackgroundColor=#FF6666;strokeColor=#FF6666;gradientColor=none;" vertex="1" parent="WIyWlLk6GJQsqaUBKTNV-1">
          <mxGeometry x="75" y="145" width="580" height="1190" as="geometry" />
        </mxCell>
        <mxCell id="79H7WuceuEITW2tOccr_-2" value="" style="edgeStyle=orthogonalEdgeStyle;rounded=0;orthogonalLoop=1;jettySize=auto;html=1;" edge="1" parent="WIyWlLk6GJQsqaUBKTNV-1" source="79H7WuceuEITW2tOccr_-0" target="79H7WuceuEITW2tOccr_-1">
          <mxGeometry relative="1" as="geometry" />
        </mxCell>
        <mxCell id="79H7WuceuEITW2tOccr_-0" value="脚本执行" style="rounded=1;whiteSpace=wrap;html=1;fontSize=12;glass=0;strokeWidth=1;shadow=0;" vertex="1" parent="WIyWlLk6GJQsqaUBKTNV-1">
          <mxGeometry x="160" y="20" width="120" height="40" as="geometry" />
        </mxCell>
        <mxCell id="79H7WuceuEITW2tOccr_-5" value="" style="edgeStyle=orthogonalEdgeStyle;rounded=0;orthogonalLoop=1;jettySize=auto;html=1;" edge="1" parent="WIyWlLk6GJQsqaUBKTNV-1" source="79H7WuceuEITW2tOccr_-1" target="79H7WuceuEITW2tOccr_-4">
          <mxGeometry relative="1" as="geometry" />
        </mxCell>
        <mxCell id="79H7WuceuEITW2tOccr_-1" value="读取策略配置csv文件、获取实例数据、备份数据、备份计划" style="rounded=1;whiteSpace=wrap;html=1;fontSize=12;glass=0;strokeWidth=1;shadow=0;" vertex="1" parent="WIyWlLk6GJQsqaUBKTNV-1">
          <mxGeometry x="160" y="90" width="120" height="40" as="geometry" />
        </mxCell>
        <mxCell id="79H7WuceuEITW2tOccr_-7" style="edgeStyle=orthogonalEdgeStyle;rounded=0;orthogonalLoop=1;jettySize=auto;html=1;exitX=1;exitY=0.5;exitDx=0;exitDy=0;" edge="1" parent="WIyWlLk6GJQsqaUBKTNV-1" source="79H7WuceuEITW2tOccr_-4" target="79H7WuceuEITW2tOccr_-6">
          <mxGeometry relative="1" as="geometry" />
        </mxCell>
        <mxCell id="79H7WuceuEITW2tOccr_-8" value="no" style="edgeLabel;html=1;align=center;verticalAlign=middle;resizable=0;points=[];" vertex="1" connectable="0" parent="79H7WuceuEITW2tOccr_-7">
          <mxGeometry x="-0.2744" y="1" relative="1" as="geometry">
            <mxPoint as="offset" />
          </mxGeometry>
        </mxCell>
        <mxCell id="79H7WuceuEITW2tOccr_-11" value="" style="edgeStyle=orthogonalEdgeStyle;rounded=0;orthogonalLoop=1;jettySize=auto;html=1;" edge="1" parent="WIyWlLk6GJQsqaUBKTNV-1" source="79H7WuceuEITW2tOccr_-4" target="79H7WuceuEITW2tOccr_-10">
          <mxGeometry relative="1" as="geometry" />
        </mxCell>
        <mxCell id="79H7WuceuEITW2tOccr_-31" value="yes" style="edgeLabel;html=1;align=center;verticalAlign=middle;resizable=0;points=[];" vertex="1" connectable="0" parent="79H7WuceuEITW2tOccr_-11">
          <mxGeometry x="-0.1601" y="-1" relative="1" as="geometry">
            <mxPoint as="offset" />
          </mxGeometry>
        </mxCell>
        <mxCell id="79H7WuceuEITW2tOccr_-4" value="判断env环境是否在默认配置策略中" style="rhombus;whiteSpace=wrap;html=1;shadow=0;fontFamily=Helvetica;fontSize=12;align=center;strokeWidth=1;spacing=6;spacingTop=-4;" vertex="1" parent="WIyWlLk6GJQsqaUBKTNV-1">
          <mxGeometry x="153.13" y="170" width="133.75" height="70" as="geometry" />
        </mxCell>
        <mxCell id="79H7WuceuEITW2tOccr_-9" style="edgeStyle=orthogonalEdgeStyle;rounded=0;orthogonalLoop=1;jettySize=auto;html=1;exitX=0;exitY=0.75;exitDx=0;exitDy=0;" edge="1" parent="WIyWlLk6GJQsqaUBKTNV-1" source="79H7WuceuEITW2tOccr_-6">
          <mxGeometry relative="1" as="geometry">
            <mxPoint x="400" y="220" as="targetPoint" />
          </mxGeometry>
        </mxCell>
        <mxCell id="79H7WuceuEITW2tOccr_-6" value="不检查" style="rounded=1;whiteSpace=wrap;html=1;fontSize=12;glass=0;strokeWidth=1;shadow=0;" vertex="1" parent="WIyWlLk6GJQsqaUBKTNV-1">
          <mxGeometry x="370" y="185" width="120" height="40" as="geometry" />
        </mxCell>
        <mxCell id="79H7WuceuEITW2tOccr_-13" style="edgeStyle=orthogonalEdgeStyle;rounded=0;orthogonalLoop=1;jettySize=auto;html=1;exitX=1;exitY=0.5;exitDx=0;exitDy=0;" edge="1" parent="WIyWlLk6GJQsqaUBKTNV-1" source="79H7WuceuEITW2tOccr_-10" target="79H7WuceuEITW2tOccr_-12">
          <mxGeometry relative="1" as="geometry" />
        </mxCell>
        <mxCell id="79H7WuceuEITW2tOccr_-22" value="no" style="edgeLabel;html=1;align=center;verticalAlign=middle;resizable=0;points=[];" vertex="1" connectable="0" parent="79H7WuceuEITW2tOccr_-13">
          <mxGeometry x="0.2061" y="2" relative="1" as="geometry">
            <mxPoint as="offset" />
          </mxGeometry>
        </mxCell>
        <mxCell id="79H7WuceuEITW2tOccr_-18" style="edgeStyle=orthogonalEdgeStyle;rounded=0;orthogonalLoop=1;jettySize=auto;html=1;" edge="1" parent="WIyWlLk6GJQsqaUBKTNV-1" source="79H7WuceuEITW2tOccr_-10" target="79H7WuceuEITW2tOccr_-17">
          <mxGeometry relative="1" as="geometry" />
        </mxCell>
        <mxCell id="79H7WuceuEITW2tOccr_-30" value="yes" style="edgeLabel;html=1;align=center;verticalAlign=middle;resizable=0;points=[];" vertex="1" connectable="0" parent="79H7WuceuEITW2tOccr_-18">
          <mxGeometry x="-0.1" relative="1" as="geometry">
            <mxPoint as="offset" />
          </mxGeometry>
        </mxCell>
        <mxCell id="79H7WuceuEITW2tOccr_-10" value="本地是否存在策略" style="rhombus;whiteSpace=wrap;html=1;shadow=0;fontFamily=Helvetica;fontSize=12;align=center;strokeWidth=1;spacing=6;spacingTop=-4;" vertex="1" parent="WIyWlLk6GJQsqaUBKTNV-1">
          <mxGeometry x="153.12" y="290" width="133.75" height="80" as="geometry" />
        </mxCell>
        <mxCell id="79H7WuceuEITW2tOccr_-19" style="edgeStyle=orthogonalEdgeStyle;rounded=0;orthogonalLoop=1;jettySize=auto;html=1;entryX=0;entryY=0.5;entryDx=0;entryDy=0;" edge="1" parent="WIyWlLk6GJQsqaUBKTNV-1" source="79H7WuceuEITW2tOccr_-12" target="79H7WuceuEITW2tOccr_-14">
          <mxGeometry relative="1" as="geometry" />
        </mxCell>
        <mxCell id="79H7WuceuEITW2tOccr_-12" value="策略缺失数+1" style="rounded=1;whiteSpace=wrap;html=1;fontSize=12;glass=0;strokeWidth=1;shadow=0;" vertex="1" parent="WIyWlLk6GJQsqaUBKTNV-1">
          <mxGeometry x="370" y="310" width="120" height="40" as="geometry" />
        </mxCell>
        <mxCell id="79H7WuceuEITW2tOccr_-14" value="信息写入附件" style="rounded=1;whiteSpace=wrap;html=1;" vertex="1" parent="WIyWlLk6GJQsqaUBKTNV-1">
          <mxGeometry x="720" y="250" width="20" height="510" as="geometry" />
        </mxCell>
        <mxCell id="79H7WuceuEITW2tOccr_-21" value="yes" style="edgeStyle=orthogonalEdgeStyle;rounded=0;orthogonalLoop=1;jettySize=auto;html=1;" edge="1" parent="WIyWlLk6GJQsqaUBKTNV-1" source="79H7WuceuEITW2tOccr_-17" target="79H7WuceuEITW2tOccr_-20">
          <mxGeometry relative="1" as="geometry" />
        </mxCell>
        <mxCell id="79H7WuceuEITW2tOccr_-24" style="edgeStyle=orthogonalEdgeStyle;rounded=0;orthogonalLoop=1;jettySize=auto;html=1;" edge="1" parent="WIyWlLk6GJQsqaUBKTNV-1" source="79H7WuceuEITW2tOccr_-17" target="79H7WuceuEITW2tOccr_-23">
          <mxGeometry relative="1" as="geometry" />
        </mxCell>
        <mxCell id="79H7WuceuEITW2tOccr_-29" value="yes" style="edgeLabel;html=1;align=center;verticalAlign=middle;resizable=0;points=[];" vertex="1" connectable="0" parent="79H7WuceuEITW2tOccr_-24">
          <mxGeometry x="-0.2333" y="-1" relative="1" as="geometry">
            <mxPoint as="offset" />
          </mxGeometry>
        </mxCell>
        <mxCell id="79H7WuceuEITW2tOccr_-17" value="本地special_retention策略是否为空" style="rhombus;whiteSpace=wrap;html=1;shadow=0;fontFamily=Helvetica;fontSize=12;align=center;strokeWidth=1;spacing=6;spacingTop=-4;" vertex="1" parent="WIyWlLk6GJQsqaUBKTNV-1">
          <mxGeometry x="153.12" y="430" width="133.75" height="80" as="geometry" />
        </mxCell>
        <mxCell id="79H7WuceuEITW2tOccr_-20" value="不检查" style="rounded=1;whiteSpace=wrap;html=1;fontSize=12;glass=0;strokeWidth=1;shadow=0;" vertex="1" parent="WIyWlLk6GJQsqaUBKTNV-1">
          <mxGeometry x="370" y="450" width="120" height="40" as="geometry" />
        </mxCell>
        <mxCell id="79H7WuceuEITW2tOccr_-26" style="edgeStyle=orthogonalEdgeStyle;rounded=0;orthogonalLoop=1;jettySize=auto;html=1;entryX=0;entryY=0.5;entryDx=0;entryDy=0;" edge="1" parent="WIyWlLk6GJQsqaUBKTNV-1" source="79H7WuceuEITW2tOccr_-23" target="79H7WuceuEITW2tOccr_-25">
          <mxGeometry relative="1" as="geometry" />
        </mxCell>
        <mxCell id="79H7WuceuEITW2tOccr_-28" value="no" style="edgeLabel;html=1;align=center;verticalAlign=middle;resizable=0;points=[];" vertex="1" connectable="0" parent="79H7WuceuEITW2tOccr_-26">
          <mxGeometry x="-0.1308" y="1" relative="1" as="geometry">
            <mxPoint as="offset" />
          </mxGeometry>
        </mxCell>
        <mxCell id="79H7WuceuEITW2tOccr_-33" value="yes" style="edgeStyle=orthogonalEdgeStyle;rounded=0;orthogonalLoop=1;jettySize=auto;html=1;" edge="1" parent="WIyWlLk6GJQsqaUBKTNV-1" source="79H7WuceuEITW2tOccr_-23" target="79H7WuceuEITW2tOccr_-32">
          <mxGeometry relative="1" as="geometry" />
        </mxCell>
        <mxCell id="79H7WuceuEITW2tOccr_-23" value="判断本地策略是否正确" style="rhombus;whiteSpace=wrap;html=1;shadow=0;fontFamily=Helvetica;fontSize=12;align=center;strokeWidth=1;spacing=6;spacingTop=-4;" vertex="1" parent="WIyWlLk6GJQsqaUBKTNV-1">
          <mxGeometry x="153.12" y="570" width="133.75" height="80" as="geometry" />
        </mxCell>
        <mxCell id="79H7WuceuEITW2tOccr_-27" style="edgeStyle=orthogonalEdgeStyle;rounded=0;orthogonalLoop=1;jettySize=auto;html=1;entryX=0;entryY=0.5;entryDx=0;entryDy=0;" edge="1" parent="WIyWlLk6GJQsqaUBKTNV-1" source="79H7WuceuEITW2tOccr_-25" target="79H7WuceuEITW2tOccr_-14">
          <mxGeometry relative="1" as="geometry" />
        </mxCell>
        <mxCell id="79H7WuceuEITW2tOccr_-25" value="策略缺失数+1" style="rounded=1;whiteSpace=wrap;html=1;fontSize=12;glass=0;strokeWidth=1;shadow=0;" vertex="1" parent="WIyWlLk6GJQsqaUBKTNV-1">
          <mxGeometry x="370" y="590" width="120" height="40" as="geometry" />
        </mxCell>
        <mxCell id="79H7WuceuEITW2tOccr_-35" style="edgeStyle=orthogonalEdgeStyle;rounded=0;orthogonalLoop=1;jettySize=auto;html=1;" edge="1" parent="WIyWlLk6GJQsqaUBKTNV-1" source="79H7WuceuEITW2tOccr_-32" target="79H7WuceuEITW2tOccr_-36">
          <mxGeometry relative="1" as="geometry">
            <mxPoint x="363.1199999999999" y="740" as="targetPoint" />
          </mxGeometry>
        </mxCell>
        <mxCell id="79H7WuceuEITW2tOccr_-38" value="no" style="edgeLabel;html=1;align=center;verticalAlign=middle;resizable=0;points=[];" vertex="1" connectable="0" parent="79H7WuceuEITW2tOccr_-35">
          <mxGeometry x="-0.227" y="4" relative="1" as="geometry">
            <mxPoint as="offset" />
          </mxGeometry>
        </mxCell>
        <mxCell id="79H7WuceuEITW2tOccr_-40" style="edgeStyle=orthogonalEdgeStyle;rounded=0;orthogonalLoop=1;jettySize=auto;html=1;" edge="1" parent="WIyWlLk6GJQsqaUBKTNV-1" source="79H7WuceuEITW2tOccr_-32" target="79H7WuceuEITW2tOccr_-39">
          <mxGeometry relative="1" as="geometry" />
        </mxCell>
        <mxCell id="79H7WuceuEITW2tOccr_-41" value="yes" style="edgeLabel;html=1;align=center;verticalAlign=middle;resizable=0;points=[];" vertex="1" connectable="0" parent="79H7WuceuEITW2tOccr_-40">
          <mxGeometry x="-0.2" y="2" relative="1" as="geometry">
            <mxPoint as="offset" />
          </mxGeometry>
        </mxCell>
        <mxCell id="79H7WuceuEITW2tOccr_-32" value="24h内是否需要备份" style="rhombus;whiteSpace=wrap;html=1;shadow=0;fontFamily=Helvetica;fontSize=12;align=center;strokeWidth=1;spacing=6;spacingTop=-4;" vertex="1" parent="WIyWlLk6GJQsqaUBKTNV-1">
          <mxGeometry x="153.12" y="700" width="133.75" height="80" as="geometry" />
        </mxCell>
        <mxCell id="79H7WuceuEITW2tOccr_-36" value="跳过" style="rounded=1;whiteSpace=wrap;html=1;fontSize=12;glass=0;strokeWidth=1;shadow=0;" vertex="1" parent="WIyWlLk6GJQsqaUBKTNV-1">
          <mxGeometry x="370" y="720" width="120" height="40" as="geometry" />
        </mxCell>
        <mxCell id="79H7WuceuEITW2tOccr_-43" style="edgeStyle=orthogonalEdgeStyle;rounded=0;orthogonalLoop=1;jettySize=auto;html=1;" edge="1" parent="WIyWlLk6GJQsqaUBKTNV-1" source="79H7WuceuEITW2tOccr_-39" target="79H7WuceuEITW2tOccr_-42">
          <mxGeometry relative="1" as="geometry" />
        </mxCell>
        <mxCell id="79H7WuceuEITW2tOccr_-44" value="no" style="edgeLabel;html=1;align=center;verticalAlign=middle;resizable=0;points=[];" vertex="1" connectable="0" parent="79H7WuceuEITW2tOccr_-43">
          <mxGeometry x="0.0466" relative="1" as="geometry">
            <mxPoint as="offset" />
          </mxGeometry>
        </mxCell>
        <mxCell id="79H7WuceuEITW2tOccr_-47" style="edgeStyle=orthogonalEdgeStyle;rounded=0;orthogonalLoop=1;jettySize=auto;html=1;" edge="1" parent="WIyWlLk6GJQsqaUBKTNV-1" source="79H7WuceuEITW2tOccr_-39" target="79H7WuceuEITW2tOccr_-46">
          <mxGeometry relative="1" as="geometry" />
        </mxCell>
        <mxCell id="79H7WuceuEITW2tOccr_-39" value="是否存在备份" style="rhombus;whiteSpace=wrap;html=1;shadow=0;fontFamily=Helvetica;fontSize=12;align=center;strokeWidth=1;spacing=6;spacingTop=-4;" vertex="1" parent="WIyWlLk6GJQsqaUBKTNV-1">
          <mxGeometry x="153.12" y="830" width="133.75" height="80" as="geometry" />
        </mxCell>
        <mxCell id="79H7WuceuEITW2tOccr_-45" style="edgeStyle=orthogonalEdgeStyle;rounded=0;orthogonalLoop=1;jettySize=auto;html=1;entryX=0;entryY=0.5;entryDx=0;entryDy=0;" edge="1" parent="WIyWlLk6GJQsqaUBKTNV-1" source="79H7WuceuEITW2tOccr_-42" target="79H7WuceuEITW2tOccr_-14">
          <mxGeometry relative="1" as="geometry">
            <mxPoint x="660" y="590" as="targetPoint" />
          </mxGeometry>
        </mxCell>
        <mxCell id="79H7WuceuEITW2tOccr_-42" value="备份缺失数+1" style="rounded=1;whiteSpace=wrap;html=1;fontSize=12;glass=0;strokeWidth=1;shadow=0;" vertex="1" parent="WIyWlLk6GJQsqaUBKTNV-1">
          <mxGeometry x="370" y="850" width="120" height="40" as="geometry" />
        </mxCell>
        <mxCell id="79H7WuceuEITW2tOccr_-49" style="edgeStyle=orthogonalEdgeStyle;rounded=0;orthogonalLoop=1;jettySize=auto;html=1;" edge="1" parent="WIyWlLk6GJQsqaUBKTNV-1" source="79H7WuceuEITW2tOccr_-46" target="79H7WuceuEITW2tOccr_-48">
          <mxGeometry relative="1" as="geometry" />
        </mxCell>
        <mxCell id="79H7WuceuEITW2tOccr_-50" value="进行中" style="edgeLabel;html=1;align=center;verticalAlign=middle;resizable=0;points=[];" vertex="1" connectable="0" parent="79H7WuceuEITW2tOccr_-49">
          <mxGeometry x="-0.1055" y="3" relative="1" as="geometry">
            <mxPoint as="offset" />
          </mxGeometry>
        </mxCell>
        <mxCell id="79H7WuceuEITW2tOccr_-52" style="edgeStyle=orthogonalEdgeStyle;rounded=0;orthogonalLoop=1;jettySize=auto;html=1;entryX=0.5;entryY=0;entryDx=0;entryDy=0;" edge="1" parent="WIyWlLk6GJQsqaUBKTNV-1" source="79H7WuceuEITW2tOccr_-46" target="79H7WuceuEITW2tOccr_-54">
          <mxGeometry relative="1" as="geometry">
            <mxPoint x="220" y="1110" as="targetPoint" />
            <Array as="points" />
          </mxGeometry>
        </mxCell>
        <mxCell id="79H7WuceuEITW2tOccr_-53" value="完成" style="edgeLabel;html=1;align=center;verticalAlign=middle;resizable=0;points=[];" vertex="1" connectable="0" parent="79H7WuceuEITW2tOccr_-52">
          <mxGeometry x="0.1053" y="-3" relative="1" as="geometry">
            <mxPoint as="offset" />
          </mxGeometry>
        </mxCell>
        <mxCell id="79H7WuceuEITW2tOccr_-46" value="备份状态判断" style="rhombus;whiteSpace=wrap;html=1;shadow=0;fontFamily=Helvetica;fontSize=12;align=center;strokeWidth=1;spacing=6;spacingTop=-4;" vertex="1" parent="WIyWlLk6GJQsqaUBKTNV-1">
          <mxGeometry x="153.13" y="950" width="133.75" height="80" as="geometry" />
        </mxCell>
        <mxCell id="79H7WuceuEITW2tOccr_-58" style="edgeStyle=orthogonalEdgeStyle;rounded=0;orthogonalLoop=1;jettySize=auto;html=1;entryX=0;entryY=0.5;entryDx=0;entryDy=0;" edge="1" parent="WIyWlLk6GJQsqaUBKTNV-1" source="79H7WuceuEITW2tOccr_-48" target="79H7WuceuEITW2tOccr_-14">
          <mxGeometry relative="1" as="geometry" />
        </mxCell>
        <mxCell id="79H7WuceuEITW2tOccr_-48" value="进行中数量+1" style="rounded=1;whiteSpace=wrap;html=1;fontSize=12;glass=0;strokeWidth=1;shadow=0;" vertex="1" parent="WIyWlLk6GJQsqaUBKTNV-1">
          <mxGeometry x="370" y="970" width="120" height="40" as="geometry" />
        </mxCell>
        <mxCell id="79H7WuceuEITW2tOccr_-57" style="edgeStyle=orthogonalEdgeStyle;rounded=0;orthogonalLoop=1;jettySize=auto;html=1;" edge="1" parent="WIyWlLk6GJQsqaUBKTNV-1" source="79H7WuceuEITW2tOccr_-54" target="79H7WuceuEITW2tOccr_-56">
          <mxGeometry relative="1" as="geometry" />
        </mxCell>
        <mxCell id="79H7WuceuEITW2tOccr_-60" value="yes" style="edgeLabel;html=1;align=center;verticalAlign=middle;resizable=0;points=[];" vertex="1" connectable="0" parent="79H7WuceuEITW2tOccr_-57">
          <mxGeometry x="-0.0828" y="1" relative="1" as="geometry">
            <mxPoint as="offset" />
          </mxGeometry>
        </mxCell>
        <mxCell id="79H7WuceuEITW2tOccr_-64" style="edgeStyle=orthogonalEdgeStyle;rounded=0;orthogonalLoop=1;jettySize=auto;html=1;entryX=0;entryY=0.5;entryDx=0;entryDy=0;" edge="1" parent="WIyWlLk6GJQsqaUBKTNV-1" source="79H7WuceuEITW2tOccr_-54" target="79H7WuceuEITW2tOccr_-61">
          <mxGeometry relative="1" as="geometry">
            <Array as="points">
              <mxPoint x="220" y="1290" />
            </Array>
          </mxGeometry>
        </mxCell>
        <mxCell id="79H7WuceuEITW2tOccr_-54" value="完成时间大于24h" style="rhombus;whiteSpace=wrap;html=1;shadow=0;fontFamily=Helvetica;fontSize=12;align=center;strokeWidth=1;spacing=6;spacingTop=-4;" vertex="1" parent="WIyWlLk6GJQsqaUBKTNV-1">
          <mxGeometry x="153.13" y="1100" width="133.75" height="80" as="geometry" />
        </mxCell>
        <mxCell id="79H7WuceuEITW2tOccr_-55" style="edgeStyle=orthogonalEdgeStyle;rounded=0;orthogonalLoop=1;jettySize=auto;html=1;exitX=0.5;exitY=1;exitDx=0;exitDy=0;" edge="1" parent="WIyWlLk6GJQsqaUBKTNV-1" source="79H7WuceuEITW2tOccr_-54" target="79H7WuceuEITW2tOccr_-54">
          <mxGeometry relative="1" as="geometry" />
        </mxCell>
        <mxCell id="79H7WuceuEITW2tOccr_-59" style="edgeStyle=orthogonalEdgeStyle;rounded=0;orthogonalLoop=1;jettySize=auto;html=1;entryX=0;entryY=0.5;entryDx=0;entryDy=0;" edge="1" parent="WIyWlLk6GJQsqaUBKTNV-1" source="79H7WuceuEITW2tOccr_-56" target="79H7WuceuEITW2tOccr_-14">
          <mxGeometry relative="1" as="geometry" />
        </mxCell>
        <mxCell id="79H7WuceuEITW2tOccr_-56" value="备份缺失数+1" style="rounded=1;whiteSpace=wrap;html=1;fontSize=12;glass=0;strokeWidth=1;shadow=0;" vertex="1" parent="WIyWlLk6GJQsqaUBKTNV-1">
          <mxGeometry x="370" y="1120" width="120" height="40" as="geometry" />
        </mxCell>
        <mxCell id="79H7WuceuEITW2tOccr_-63" style="edgeStyle=orthogonalEdgeStyle;rounded=0;orthogonalLoop=1;jettySize=auto;html=1;entryX=0;entryY=0.5;entryDx=0;entryDy=0;" edge="1" parent="WIyWlLk6GJQsqaUBKTNV-1" source="79H7WuceuEITW2tOccr_-61" target="79H7WuceuEITW2tOccr_-14">
          <mxGeometry relative="1" as="geometry" />
        </mxCell>
        <mxCell id="79H7WuceuEITW2tOccr_-61" value="备份成功数量+1" style="rounded=1;whiteSpace=wrap;html=1;fontSize=12;glass=0;strokeWidth=1;shadow=0;" vertex="1" parent="WIyWlLk6GJQsqaUBKTNV-1">
          <mxGeometry x="360" y="1270" width="130" height="40" as="geometry" />
        </mxCell>
        <mxCell id="79H7WuceuEITW2tOccr_-65" value="1.统计【备份检童恐盘总数，策略配置异常，快照缺失。快照未完成，快照完成数】数据添加到汇总sheet中&lt;br&gt;2.备份策略导常，备份缺失，备份未完成，添加到邮件正文&lt;br&gt;3.各项数据汇总至对应的附件sheet中【备份情况汇总表，策略配置异常，快照完成，快照缺失，快照未完成，特殊策略】&lt;br&gt;4.添加邮件附件，发送邮件给配置文件中配置的收件人" style="rounded=0;whiteSpace=wrap;html=1;align=left;" vertex="1" parent="WIyWlLk6GJQsqaUBKTNV-1">
          <mxGeometry x="80" y="1440" width="570" height="90" as="geometry" />
        </mxCell>
        <mxCell id="79H7WuceuEITW2tOccr_-67" value="循环判断逻辑" style="rounded=1;whiteSpace=wrap;html=1;fillColor=#f8cecc;strokeColor=#b85450;" vertex="1" parent="WIyWlLk6GJQsqaUBKTNV-1">
          <mxGeometry x="520" y="185" width="120" height="60" as="geometry" />
        </mxCell>
      </root>
    </mxGraphModel>
  </diagram>
</mxfile>
